<svg xmlns="http://www.w3.org/2000/svg" viewBox="0 0 183.21 164.53"><defs><style>.cls-1,.cls-10,.cls-11,.cls-12,.cls-13,.cls-14,.cls-15,.cls-4,.cls-8,.cls-9{fill:none;}.cls-1,.cls-10,.cls-2,.cls-6{stroke:#000;}.cls-1,.cls-10,.cls-11,.cls-12,.cls-13,.cls-14,.cls-2,.cls-4,.cls-6,.cls-7,.cls-8,.cls-9{stroke-miterlimit:10;}.cls-1,.cls-2{stroke-width:0.35px;}.cls-2,.cls-6,.cls-7{fill:#fff;}.cls-3{fill:#f7201b;}.cls-4{stroke:#010101;stroke-width:0.36px;}.cls-5{fill:#010101;}.cls-10,.cls-6{stroke-width:0.19px;}.cls-11,.cls-12,.cls-13,.cls-14,.cls-7,.cls-8,.cls-9{stroke:#0e0e0e;}.cls-7,.cls-8{stroke-width:0.28px;}.cls-9{stroke-width:0.16px;}.cls-11{stroke-width:0.32px;}.cls-12{stroke-width:0.18px;}.cls-13{stroke-width:0.19px;}.cls-14{stroke-width:0.14px;}</style></defs><title>about_illustration_1</title><g id="Layer_2" data-name="Layer 2"><g id="Layer_1-2" data-name="Layer 1"><path class="cls-1" d="M91.22,72.78,85.1,73l-3.64-4.68s-.13,4.73-2.3,7.17S78.08,85,78.08,85L62,85.23l2.83-7.3-.27-6.36-6.36-.14C59.68,63.18,64.55,57,70.1,57.36c.27,3.92,4.32,10.28,5.27,10.42s2.44-7.71,2.44-9.2C82.68,59.52,91.22,72.78,91.22,72.78Z"/><path class="cls-1" d="M108.9,101.31c-1.08-4.19-4.4-3.91-5.7-6.36l-12-22.17L85.1,73l16,24.07S103.69,97.56,108.9,101.31Z"/><path class="cls-1" d="M64.55,71.57,54,110.61c-1.6-4.94.54-6.55.27-10.43s4-28.75,4-28.75Z"/><path class="cls-1" d="M87.08,144.42l-15-40.52-7,40.27H63.68a31.78,31.78,0,0,1,19.05-47.9l19.61,47.65Z"/><path class="cls-1" d="M58.39,144.46s-.86,6.89-1.38,9.64-7.92,4.82-7.92,6.89H60.45l4.14-16.87Z"/><path class="cls-1" d="M102.34,143.92l-15.26.5-15-40.52-7,40.27h-18S56.7,93,62,85.23L78.08,85Z"/><circle class="cls-1" cx="90.49" cy="127.1" r="31.78"/><path class="cls-2" d="M93.29,143.06s.86,6.89,1.38,9.64,7.92,4.83,7.92,6.89H91.22l-4.13-16.87Z"/><path class="cls-3" d="M87.08,144.42l-15-40.52-7,40.27H63.68a31.78,31.78,0,0,1,19.05-47.9l19.61,47.65Z"/><path class="cls-4" d="M80,45.3a6.64,6.64,0,0,1,2.39,3.44,1,1,0,0,1,0,.88c-.26.34-.84.27-1.1.6.32.27.28.77.21,1.19-.23,1.3-.55,2.74-1.66,3.47a4,4,0,0,1-2.19.52c-2.41,0-3.46-1.21-3.53,1.93.94.19,4.39,1.41,4.39,1.41"/><path class="cls-5" d="M43.42,65.72c.87-1.33,2.27-1.52,3.37-2.51,2.06-1.88,2.43-4.91,3.56-7.31a12.25,12.25,0,0,1,6.74-6.36,10,10,0,0,1,2-.56c.58-.3,1.18-.63,1.81-1,3.88-2.3,6.15-7,10.56-8.48a9,9,0,0,1,10.9,4.39,1.89,1.89,0,0,1,0,2,2.16,2.16,0,0,1-2.41,1.48c-.59.3-1.21.54-1.8.79a37.48,37.48,0,0,1-3.61,1.27,17.35,17.35,0,0,1-.78,2.34,23,23,0,0,0-1.18,3,2,2,0,0,1-.25.51,1.87,1.87,0,0,1-1.08,3,13,13,0,0,0-8.41,6.3,16.89,16.89,0,0,0-2.43,6c-.18,1.27.18,2-.59,3a2,2,0,0,1-2.25.92c-3-1.16-5.9,1.32-9,.86a6.85,6.85,0,0,1-5.44-3.84A6.59,6.59,0,0,1,43.42,65.72Z"/><polygon class="cls-3" points="51.64 29.42 46.99 13.08 63.85 18.41 51.64 29.42"/><circle class="cls-6" cx="38.7" cy="34.7" r="2.77"/><polygon class="cls-7" points="117.19 159.7 131.95 142.56 147.03 159.36 117.19 159.7"/><circle class="cls-3" cx="163.51" cy="150.77" r="9.99"/><circle class="cls-8" cx="146.36" cy="136.12" r="9.64"/><rect class="cls-8" x="144.17" y="134.24" width="20.31" height="20.31" transform="translate(255.52 -41.14) rotate(75.51)"/><circle class="cls-9" cx="174.46" cy="157.12" r="5.8"/><circle class="cls-10" cx="46.99" cy="13.08" r="10.61"/><g id="F6jJcL"><path d="M111.31,40.67l2.81,17.2c-.24,0-.45,0-.66-.06L98.64,56.22l-7.71-.82c-.28,0-.4-.11-.44-.41-.18-1.22-.39-2.44-.6-3.65a.32.32,0,0,1,.22-.4l14-6.77,6.73-3.26Z"/><path d="M116.59,57.46c0,.57-.23.86-.68.9s-.79-.25-.88-.8l-2.49-15.22-.33-2a.79.79,0,0,1,.43-.87.76.76,0,0,1,.92.17,1.09,1.09,0,0,1,.22.49L115,47.4c.51,3.14,1,6.27,1.54,9.41C116.55,57,116.57,57.24,116.59,57.46Z"/><path d="M95.73,56.46l-.17,1.8,5.94.6.19-1.76,1,.1c-.08.68-.13,1.33-.24,2a.73.73,0,0,1-.83.61l-4.43-.36c-.49,0-1-.11-1.46-.15-.88-.07-1.2-.45-1.12-1.31.05-.53.1-1.05.16-1.6Z"/><path d="M87.21,51.39a.78.78,0,0,1,.68-.8.76.76,0,0,1,.88.6c.24,1.38.46,2.77.67,4.16a.75.75,0,0,1-.66.86.77.77,0,0,1-.89-.63c-.23-1.36-.45-2.72-.67-4.07A.62.62,0,0,1,87.21,51.39Z"/></g><path class="cls-11" d="M118,47.86c6.25-.25,12.47,1,18.72.94s13-1.81,16.84-6.71c1.15-1.45,2-3.49,1.1-5.09a4.15,4.15,0,0,0-3.31-1.8c-3.31-.28-6.89,2.51-6.49,5.81a6,6,0,0,0,4.08,4.62,14.14,14.14,0,0,0,6.41.42A46.05,46.05,0,0,0,183.09,32.4"/><rect class="cls-11" x="135.15" y="42.06" width="3.43" height="3.43"/><rect class="cls-12" x="124.81" y="38.86" width="1.99" height="1.99" transform="translate(32.85 -53.81) rotate(27.64)"/><circle class="cls-11" cx="119.76" cy="51.54" r="1.11"/><circle class="cls-11" cx="128.33" cy="29.81" r="2"/><circle class="cls-13" cx="147.7" cy="61.54" r="1.2"/><polygon class="cls-11" points="130.38 53.78 134.45 54.75 132.97 58.65 130.38 53.78"/><polygon class="cls-14" points="143.83 26.04 144.13 27.86 142.29 27.92 143.83 26.04"/><rect class="cls-15" width="41.47" height="164.53"/></g></g></svg>