<svg width="37" height="33" viewBox="0 0 37 33" fill="none" xmlns="http://www.w3.org/2000/svg">
<path d="M16.9498 16C18.1582 16 19.3031 16.3827 20.448 16.9568C24.7731 19.3169 26.4904 23.3354 26.9356 27.928C27.1901 30.6708 24.8367 32.3292 22.1653 31.6276C20.5752 31.1811 19.0487 30.607 17.4586 30.1605C15.6777 29.5864 13.8332 29.714 11.9886 30.4794C9.57168 31.5 6.77309 30.7984 6.07344 27.6091C6.00984 27.2263 5.94624 26.8436 6.07344 26.5247C7.59995 23.0165 9.44447 19.7634 12.5611 17.4671C13.8332 16.5103 15.2961 16 16.9498 16Z" stroke="#EC1D17" stroke-width="1.5" stroke-miterlimit="10"/>
<path d="M17.2367 7.12461C17.1095 8.59169 16.9187 9.99498 15.9646 11.1431C14.6925 12.7378 12.7844 12.8653 11.3851 11.3983C9.28616 9.29333 8.90453 4.95588 10.6218 2.46823C11.8939 0.682221 13.8021 0.490863 15.3922 2.08551C16.7279 3.48881 17.1095 5.27481 17.2367 7.12461Z" stroke="#EC1D17" stroke-width="1.5" stroke-miterlimit="10"/>
<path d="M19.7809 8.65548C19.7809 6.42297 20.4805 4.4456 22.1978 2.91474C24.2332 1.06494 26.6501 1.76659 27.4134 4.38181C28.1766 7.12461 27.477 9.61227 25.5688 11.7172C24.6784 12.7378 23.4699 13.4394 22.007 12.9291C20.5441 12.4189 20.0353 11.1431 19.7809 9.73984C19.7173 9.42091 19.7809 9.03819 19.7809 8.65548Z" stroke="#EC1D17" stroke-width="1.5" stroke-miterlimit="10"/>
<path d="M35.7455 15.0979C35.5547 17.3942 34.6643 19.3715 32.7561 20.7748C31.7385 21.4765 30.6572 21.923 29.4487 21.2851C28.2402 20.6472 27.9222 19.4991 27.9222 18.2872C27.9858 15.9271 28.9399 13.9497 30.9116 12.5464C31.9293 11.8448 33.0105 11.4621 34.219 12.0999C35.4275 12.7378 35.6183 13.8859 35.7455 15.0979Z" stroke="#EC1D17" stroke-width="1.5" stroke-miterlimit="10"/>
<path d="M8.26849 15.0341C8.20489 15.6719 8.14129 16.3098 7.88687 17.0114C7.06001 19.0526 5.21549 19.5629 3.43457 18.2872C1.39924 16.6925 0.381568 13.0567 1.39924 10.6328C2.22609 8.71926 4.19782 8.20897 5.78793 9.54848C7.50524 10.9518 8.14129 12.8654 8.26849 15.0341Z" stroke="#EC1D17" stroke-width="1.5" stroke-miterlimit="10"/>
</svg>
