<svg width="37" height="32" viewBox="0 0 37 32" fill="none" xmlns="http://www.w3.org/2000/svg">
<path fill-rule="evenodd" clip-rule="evenodd" d="M16.9498 16.3491C15.4572 16.3491 14.1492 16.7939 13.0041 17.6322L12.9982 17.6365L12.9981 17.6365C10.0493 19.751 8.27279 22.7635 6.76484 26.1336C6.7383 26.2066 6.74072 26.3458 6.80938 26.7518C7.11206 28.0716 7.82855 28.8008 8.66497 29.1345C9.53598 29.4821 10.6343 29.4372 11.7036 28.9978L11.7078 28.996L11.7078 28.996C13.6891 28.1958 15.708 28.0494 17.6696 28.6612C18.4751 28.8818 19.2623 29.1327 20.0326 29.3781L20.0397 29.3804C20.8192 29.6288 21.5815 29.8717 22.3569 30.0838C23.5044 30.3755 24.5209 30.1611 25.2046 29.6605C25.8739 29.1706 26.2917 28.361 26.1891 27.2807C25.7594 22.9703 24.1293 19.3398 20.1075 17.1987C19.0219 16.6702 17.9975 16.3491 16.9498 16.3491ZM12.1211 16.4196C13.5195 15.3968 15.1362 14.8491 16.9498 14.8491C18.3153 14.8491 19.5771 15.2707 20.7769 15.8563L20.7885 15.8619L20.7998 15.8679C25.4194 18.3213 27.2213 22.5096 27.6819 27.1339L27.6823 27.1371C27.8337 28.7256 27.202 30.0573 26.0907 30.8709C24.9947 31.6732 23.501 31.9245 21.9796 31.5356L21.9676 31.5325L21.9676 31.5324C21.1574 31.311 20.3658 31.0587 19.5913 30.8119L19.5842 30.8096C18.8027 30.5605 18.0383 30.317 17.2609 30.1045L17.2474 30.1009L17.2341 30.0967C15.6387 29.5961 13.974 29.6989 12.2716 30.3861C10.9244 30.9392 9.41586 31.0491 8.10913 30.5278C6.77108 29.9939 5.74128 28.8351 5.3418 27.0627L5.33746 27.0435L5.33415 27.0241C5.331 27.0056 5.32759 26.9861 5.32401 26.9657C5.26733 26.6416 5.16806 26.0739 5.37946 25.5581L5.38394 25.5471L5.38876 25.5364C6.93191 22.0847 8.84283 18.7716 12.1211 16.4196Z" fill="#EC1D17"/>
<path fill-rule="evenodd" clip-rule="evenodd" d="M11.2304 2.86742C10.502 3.89737 10.188 5.36556 10.3194 6.84813C10.4511 8.33349 11.0194 9.71538 11.909 10.5837L11.9149 10.5895L11.9208 10.5954C12.4894 11.1756 13.1124 11.3975 13.6796 11.3649C14.25 11.3322 14.8603 11.0363 15.3845 10.3966L15.3893 10.3908L15.3942 10.3851C16.1669 9.47999 16.3568 8.35835 16.4843 6.95435C16.3573 5.24009 15.9919 3.74646 14.8621 2.58715C14.1876 1.93141 13.5196 1.70863 12.9503 1.75626C12.3795 1.80402 11.7677 2.13527 11.2304 2.86742ZM12.8252 0.261486C13.9238 0.169579 15.0026 0.628176 15.916 1.51978L15.9223 1.52587L15.9284 1.53211C17.4521 3.09013 17.8535 5.04962 17.9848 6.90806L17.989 6.96781L17.9837 7.02748C17.8571 8.44906 17.66 10.0374 16.5399 11.3533C15.7927 12.2621 14.8148 12.8022 13.7655 12.8624C12.7133 12.9229 11.685 12.495 10.8553 11.6513C9.64968 10.471 8.97958 8.72061 8.82531 6.9806C8.67073 5.23711 9.02349 3.38608 10.0101 1.99508L10.0165 1.98601L10.0166 1.98606C10.7506 0.983067 11.7276 0.353318 12.8252 0.261486Z" fill="#EC1D17"/>
<path fill-rule="evenodd" clip-rule="evenodd" d="M25.0827 2.67071C24.4256 2.48899 23.567 2.65372 22.6947 3.4253L22.6893 3.43006L22.6893 3.43004C21.164 4.75342 20.5309 6.45565 20.5309 8.45083C20.5309 8.59984 20.5212 8.76742 20.5136 8.90013C20.5106 8.95136 20.508 8.99741 20.5063 9.03517C20.4988 9.20342 20.5034 9.29631 20.5156 9.35565L20.5183 9.36884L20.5182 9.36886C20.7593 10.6631 21.1867 11.5397 22.2481 11.9001C23.3069 12.2595 24.2198 11.812 25.0104 10.9301L25.0152 10.9248L25.02 10.9195C26.7673 9.04357 27.3749 6.89078 26.6936 4.5023C26.3693 3.42511 25.737 2.85165 25.0827 2.67071ZM25.4825 1.22497C26.7355 1.57147 27.6924 2.61076 28.1318 4.07598L28.1345 4.08521L28.1345 4.08522C28.9769 7.03156 28.1867 9.7176 26.1225 11.9367C25.1321 13.039 23.6299 13.9533 21.7659 13.3204C19.9041 12.6884 19.3129 11.0852 19.0446 9.6494C18.9948 9.40085 18.9994 9.1553 19.0078 8.96842C19.0113 8.88803 19.0154 8.81965 19.019 8.75721C19.0255 8.64772 19.0309 8.55651 19.0309 8.45083C19.0309 6.10143 19.7963 3.95556 21.7036 2.29937C22.8661 1.27238 24.2325 0.879265 25.4825 1.22497Z" fill="#EC1D17"/>
<path fill-rule="evenodd" clip-rule="evenodd" d="M31.3341 12.8575C29.5764 14.0769 28.7321 15.7689 28.6722 17.8354C28.674 18.8817 28.9477 19.6424 29.7914 20.0758C30.6191 20.501 31.3787 20.2656 32.3288 19.6298C34.0005 18.4292 34.804 16.7517 34.9919 14.7287C34.8637 13.5783 34.6804 12.8834 33.8763 12.4704C33.0259 12.0335 32.2545 12.2409 31.3341 12.8575ZM30.4937 11.615C31.6066 10.8682 32.9965 10.3321 34.5617 11.1361C36.1577 11.956 36.3655 13.4755 36.4912 14.6406L36.499 14.7127L36.4928 14.7848C36.2869 17.196 35.3113 19.3397 33.1927 20.8561L33.1834 20.8627L33.174 20.869C32.0932 21.5943 30.6925 22.225 29.106 21.41C27.5355 20.6032 27.1722 19.1326 27.1722 17.8251V17.8147L27.1725 17.8043C27.2423 15.2834 28.3048 13.1311 30.4845 11.6213L30.4936 11.615L30.4937 11.615Z" fill="#EC1D17"/>
<path fill-rule="evenodd" clip-rule="evenodd" d="M2.08632 10.6761C1.66452 11.657 1.64571 12.9462 1.99466 14.2021C2.34208 15.4526 3.0249 16.5637 3.87669 17.219C4.62557 17.7368 5.29943 17.8353 5.81892 17.6919C6.33422 17.5496 6.84387 17.1291 7.18901 16.3083C7.39463 15.7508 7.45479 15.2389 7.51608 14.644C7.38847 12.6891 6.80069 11.0838 5.3211 9.90705L5.31236 9.9001C4.67614 9.37848 4.02321 9.25778 3.48516 9.38907C2.94588 9.52066 2.41836 9.93076 2.08632 10.6761ZM6.25905 8.73647C5.3061 7.95713 4.18001 7.67551 3.12957 7.93182C2.07961 8.18803 1.20867 8.95635 0.713759 10.0711L0.710584 10.0783C0.116237 11.4561 0.135533 13.1141 0.549403 14.6037C0.963509 16.0941 1.80215 17.5235 2.9798 18.4215L2.99252 18.4312L3.00565 18.4403C4.03241 19.1561 5.1664 19.4281 6.21807 19.1378C7.27426 18.8462 8.09764 18.0289 8.57929 16.8717L8.58473 16.8586L8.58968 16.8453C8.87772 16.0722 8.94956 15.3706 9.01197 14.761L9.02081 14.6747L9.01714 14.6138C8.88228 12.3762 8.19569 10.2789 6.25905 8.73647Z" fill="#EC1D17"/>
</svg>
