<svg xmlns="http://www.w3.org/2000/svg" viewBox="0 0 123.13 107.23"><defs><style>.cls-1{fill:#f7201b;}.cls-2,.cls-3{fill:none;stroke:#000;stroke-miterlimit:10;}.cls-2{stroke-width:0.75px;}.cls-3{stroke-width:0.5px;}</style></defs><title>confirm_1</title><g id="Layer_2" data-name="Layer 2"><g id="Layer_1-2" data-name="Layer 1"><circle class="cls-1" cx="112.52" cy="75.39" r="10.61"/><circle class="cls-2" cx="58.82" cy="40.59" r="19.48"/><polygon class="cls-2" points="44.09 15.05 49.79 5.25 59.41 10.95 69.03 4.71 74.2 15.05 85.07 14.51 85.25 25.2 94.51 30.73 89.17 40.35 94.51 49.62 84.89 55.67 85.07 66.9 73.84 66.36 68.68 76.16 59.17 69.38 49.97 76.34 44.27 66.54 33.22 66.72 33.4 55.32 23.95 49.97 29.48 40.35 24.31 31.44 34.11 25.74 33.4 14.51 44.09 15.05"/><polyline class="cls-2" points="58.98 75.81 72.54 105.92 80.77 95.26 94.23 98.07 84.8 70.51"/><polyline class="cls-2" points="35.53 69.08 21.88 96.38 35.26 94.87 42.62 106.49 58.98 75.81"/><polygon class="cls-1" points="15.5 27.2 10.86 10.86 27.72 16.19 15.5 27.2"/><circle class="cls-3" cx="10.86" cy="10.86" r="10.61"/><circle class="cls-3" cx="104.91" cy="68.08" r="10.61"/><circle class="cls-3" cx="114.38" cy="50.08" r="3.14"/><circle class="cls-3" cx="5.87" cy="32.9" r="3.65"/></g></g></svg>