<svg width="33" height="37" viewBox="0 0 33 37" fill="none" xmlns="http://www.w3.org/2000/svg">
<path d="M26.9881 8.87007C26.6792 8.71425 26.458 8.42417 26.3897 8.085C25.9759 6.03121 24.9303 4.15364 23.3743 2.70447C21.5017 0.960482 19.0604 0 16.5001 0C13.9398 0 11.4986 0.960482 9.62587 2.70447C8.06985 4.15364 7.02431 6.03123 6.61055 8.08503C6.54223 8.42418 6.32097 8.71425 6.01208 8.87007C2.64834 10.5669 0.462585 14.0476 0.462585 17.8816C0.462585 23.4446 4.98837 27.9703 10.5512 27.9703C11.692 27.9703 12.8135 27.7773 13.8722 27.4081C14.5906 27.1575 15.416 27.6511 15.416 28.412V36C15.416 36.5523 15.8637 37 16.416 37H16.584C17.1363 37 17.584 36.5523 17.584 36V28.412C17.584 27.6511 18.4094 27.1575 19.1278 27.4081C20.1864 27.7773 21.3079 27.9703 22.4487 27.9703C28.0117 27.9703 32.5374 23.4445 32.5374 17.8816C32.5376 14.0477 30.3519 10.5668 26.9881 8.87007ZM22.4489 25.8023C20.8445 25.8023 19.2887 25.3164 17.9785 24.4196C17.7241 24.2455 17.5841 23.9511 17.5841 23.6428V18.105C17.5841 17.7336 17.79 17.3928 18.1187 17.2199L21.561 15.41C22.0498 15.153 22.2377 14.5483 21.9807 14.0595L21.9025 13.9108C21.6455 13.422 21.0408 13.2341 20.552 13.4911L19.0495 14.2811C18.3836 14.6313 17.5841 14.1484 17.5841 13.396V11.7842C17.5841 11.2319 17.1364 10.7842 16.5841 10.7842H16.4161C15.8639 10.7842 15.4161 11.2319 15.4161 11.7842V18.2012C15.4161 18.9535 14.6167 19.4364 13.9508 19.0863L12.4483 18.2963C11.9594 18.0392 11.3548 18.2272 11.0978 18.716L11.0196 18.8646C10.7626 19.3535 10.9505 19.9581 11.4393 20.2152L14.8815 22.0251C15.2103 22.1979 15.4161 22.5387 15.4161 22.9102V23.6428C15.4161 23.9511 15.2762 24.2455 15.0218 24.4196C13.7115 25.3164 12.1558 25.8023 10.5514 25.8023C6.18386 25.8023 2.6307 22.2491 2.6307 17.8816C2.6307 14.5422 4.74273 11.5439 7.88622 10.4208L7.93752 10.4025C8.30958 10.2696 8.5685 9.9301 8.59827 9.53614L8.60237 9.48183C8.75254 7.49676 9.64075 5.65327 11.1035 4.29099C12.5734 2.92192 14.4901 2.16797 16.5001 2.16797C18.5102 2.16797 20.4268 2.92192 21.8969 4.29092C23.3596 5.6532 24.2478 7.49662 24.398 9.48176L24.4021 9.53606C24.4318 9.93003 24.6908 10.2695 25.0628 10.4024L25.1141 10.4208C28.2576 11.5439 30.3696 14.5421 30.3696 17.8816C30.3696 22.2491 26.8164 25.8023 22.4489 25.8023Z" fill="#EC1D17"/>
</svg>
