<svg width="37" height="37" viewBox="0 0 37 37" fill="none" xmlns="http://www.w3.org/2000/svg">
<path d="M28.9881 8.87007C28.6792 8.71425 28.458 8.42417 28.3897 8.085C27.9759 6.03121 26.9303 4.15364 25.3743 2.70447C23.5017 0.960482 21.0604 0 18.5001 0C15.9398 0 13.4986 0.960482 11.6259 2.70447C10.0699 4.15364 9.02431 6.03123 8.61055 8.08503C8.54223 8.42418 8.32097 8.71425 8.01208 8.87007C4.64834 10.5669 2.46259 14.0476 2.46259 17.8816C2.46259 23.4446 6.98837 27.9703 12.5512 27.9703C13.692 27.9703 14.8135 27.7773 15.8722 27.4081C16.5906 27.1575 17.416 27.6511 17.416 28.412V36C17.416 36.5523 17.8637 37 18.416 37H18.584C19.1363 37 19.584 36.5523 19.584 36V28.412C19.584 27.6511 20.4094 27.1575 21.1278 27.4081C22.1864 27.7773 23.3079 27.9703 24.4487 27.9703C30.0117 27.9703 34.5374 23.4445 34.5374 17.8816C34.5376 14.0477 32.3519 10.5668 28.9881 8.87007ZM24.4489 25.8023C22.8445 25.8023 21.2887 25.3164 19.9785 24.4196C19.7241 24.2455 19.5841 23.9511 19.5841 23.6428V18.105C19.5841 17.7336 19.79 17.3928 20.1187 17.2199L23.561 15.41C24.0498 15.153 24.2377 14.5483 23.9807 14.0595L23.9025 13.9108C23.6455 13.422 23.0408 13.2341 22.552 13.4911L21.0495 14.2811C20.3836 14.6313 19.5841 14.1484 19.5841 13.396V11.7842C19.5841 11.2319 19.1364 10.7842 18.5841 10.7842H18.4161C17.8639 10.7842 17.4161 11.2319 17.4161 11.7842V18.2012C17.4161 18.9535 16.6167 19.4364 15.9508 19.0863L14.4483 18.2963C13.9594 18.0392 13.3548 18.2272 13.0978 18.716L13.0196 18.8646C12.7626 19.3535 12.9505 19.9581 13.4393 20.2152L16.8815 22.0251C17.2103 22.1979 17.4161 22.5387 17.4161 22.9102V23.6428C17.4161 23.9511 17.2762 24.2455 17.0218 24.4196C15.7115 25.3164 14.1558 25.8023 12.5514 25.8023C8.18386 25.8023 4.6307 22.2491 4.6307 17.8816C4.6307 14.5422 6.74273 11.5439 9.88622 10.4208L9.93752 10.4025C10.3096 10.2696 10.5685 9.9301 10.5983 9.53614L10.6024 9.48183C10.7525 7.49676 11.6408 5.65327 13.1035 4.29099C14.5734 2.92192 16.4901 2.16797 18.5001 2.16797C20.5102 2.16797 22.4268 2.92192 23.8969 4.29092C25.3596 5.6532 26.2478 7.49662 26.398 9.48176L26.4021 9.53606C26.4318 9.93003 26.6908 10.2695 27.0628 10.4024L27.1141 10.4208C30.2576 11.5439 32.3696 14.5421 32.3696 17.8816C32.3696 22.2491 28.8164 25.8023 24.4489 25.8023Z" fill="#EC1D17"/>
</svg>
