<svg xmlns="http://www.w3.org/2000/svg" viewBox="0 0 779.37 229.28"><defs><style>.cls-1{opacity:0.5;}.cls-2{fill:#e7f1f7;}.cls-3{opacity:0.15;}.cls-4{fill:#b1ddfc;}.cls-5{opacity:0.48;}.cls-6{fill:#ceedd3;}.cls-7{fill:#d9f4db;}.cls-8{fill:#caedcc;}.cls-9{opacity:0.6;}.cls-10{fill:#fff;}.cls-11{fill:#b9eaba;}.cls-12{fill:#56463a;}.cls-13{fill:#93cc97;}.cls-14{opacity:0.53;}.cls-15{fill:#1b9b27;}.cls-16{opacity:0.81;}.cls-17{opacity:0.63;}.cls-18{fill:#e5f9e8;}.cls-19{fill:#fcb986;}.cls-20{opacity:0.41;}</style></defs><title>environment</title><g id="Layer_2" data-name="Layer 2"><g id="Layer_1-2" data-name="Layer 1"><g class="cls-1"><rect class="cls-2" x="0.44" width="772.17" height="228.18"/></g><g class="cls-3"><polygon class="cls-4" points="0.44 228.18 0 157.28 55.98 107.15 123.66 138.9 157.08 104.64 253.17 173.99 315.83 201.56 371.81 107.15 386.52 114.09 417.77 64.54 486.9 118.49 523.05 77.01 591.18 123.51 620.38 89.98 683.86 157.87 719.88 111.61 779.37 191.65 772.61 228.18 0.44 228.18"/></g><g class="cls-5"><path class="cls-6" d="M267.46,224.82C447,81.38,707.33,131,772.61,228.18Z"/></g><path class="cls-7" d="M.44,228.18c120.33-76.54,338.5-66.06,508.42-1Z"/><path class="cls-8" d="M.44,228.18C179,221.8,217,162.74,387,227.77Z"/><g class="cls-9"><path class="cls-10" d="M407.71,116.18c2.92-4.28,5.26-8.79,9.58-11.9a1.42,1.42,0,0,1,2.08.84,39.44,39.44,0,0,0,5.34,12c3.34-3,7.32-5.18,11.94-3.51,2.64,1,4.29,2.85,6.07,4.92,2.78,3.22,2.41,1.65,6.11,2.21C457.28,122,460.54,133.59,464,141a275.78,275.78,0,0,0,12.4-30.67L417.77,64.54,397.19,97.17C401,103.38,402.88,110.72,407.71,116.18Z"/><path class="cls-10" d="M491.3,115.64a129.91,129.91,0,0,0,.64,14.09c5.56-3.29,10.83-1.45,16.18,2.44,6.08-6.87,10-14.66,18.8-8.71.43-1.18.9-2.35,1.22-3.59a1.45,1.45,0,0,1,1.75-1c3.66.76,7.49,5.54,11.06,5.48,4.15-.07,5.43-9.23,8.75-11.57,4.12-2.9,9.74-2.17,14.29-.94,2.71.74,8.08,4.17,10.81,3.72a4.67,4.67,0,0,0,2.49-1.54L523.05,77l-32.58,37.38A1.28,1.28,0,0,1,491.3,115.64Z"/><path class="cls-10" d="M600.3,115.57c1,.22,5.18-2.23,6.36-2.77,2.24-1,4.59-2.19,7.05-2.45,3.9-.4,6.42,1.41,8.8,4.34a60.52,60.52,0,0,1,5.17,8.2c2.08,3.61,2.31,5.77,6.52,3.86,5.15-2.34,9.82-4.53,15-5.9L620.39,90l-21.34,24.5A1.54,1.54,0,0,0,600.3,115.57Z"/><path class="cls-10" d="M706.3,140.41c4.66,3.8,8.77,10.27,15.47,10.29,5.1,0,9.35-3.4,14.41-1,4.84,2.28,5,2.65,9.94-1.6.18-.15.34-.33.52-.48l-26.76-36L700.14,137A18.45,18.45,0,0,1,706.3,140.41Z"/><path class="cls-10" d="M351,145.65c6.87-6.58,12.36-13.28,20.5-5.69,5.39-9.93,11.86-3.32,17.94,3.1,2.47-13.06,3.08-26.29,3.71-39.54l-6.67,10.57-14.71-6.94-21.45,36.19A8,8,0,0,0,351,145.65Z"/><path class="cls-10" d="M13.89,145.67a37.09,37.09,0,0,1,.52,14.68c2.75-1.9,5.69-3.48,8.46-5.39a1.43,1.43,0,0,1,2.08.85c1.2,3.31,3.29,6.11,4.77,9.25,7.94-5.66,13.47-14,21.71-19.31a1.45,1.45,0,0,1,2,.5c3.8,5.43,8.36,10.24,12.68,15.25,2-1.88,4.42-3.29,6.28-5.4a1.44,1.44,0,0,1,2.23.29c3.5,5.41,6.53,11.15,10.73,16,4.5-5.76,6.89-13.92,13-18.17,6.38-4.44,13,2.84,18.54,6.31a96.2,96.2,0,0,1,6.9-15.24,1.43,1.43,0,0,1,2.23-.28c4.11,4.36,7.39,9.44,11.7,13.61,3.58-5,6.54-10.3,11.17-14.54a1.46,1.46,0,0,1,2,0c11.27,11.62,19,26.31,30.8,37.37,3.78-7.9,5.63-16.43,8.29-24.76a1.45,1.45,0,0,1,2.09-.85c5.3,2.51,9.76,6.12,14.45,9.54v-12a1.45,1.45,0,0,1,1.42-1.42,26.34,26.34,0,0,1,9.94,1.55c3.38,1.08,5.47,1.72,7.41.29l-68.16-49.2L123.66,138.9,56,107.15l-42.4,38A1.31,1.31,0,0,1,13.89,145.67Z"/></g><path class="cls-11" d="M241.24,116.05a28.72,28.72,0,0,0-2.38-2.3c-.83-.86-1-2-1.44-3a17.41,17.41,0,0,0-4.6-6.3,14.54,14.54,0,0,0-6.8-3.68c-3-.55-5.69.43-8.57,1a4.67,4.67,0,0,0-2.43,1c-.11.09-1.22.23-1.52.31a10.87,10.87,0,0,0-3,1.24c-.77.49-1.46,1.09-2.16,1.64-.34.26-.71.49-1.05.77l-1.43-.1a10.18,10.18,0,0,0-3.95.51,12.29,12.29,0,0,0-7,5.61,33,33,0,0,0-4.7,18.28,8.74,8.74,0,0,0,1.52,4.15c.35.62.52,1.34.87,2a18.94,18.94,0,0,0,1.84,2.36,21.27,21.27,0,0,0,7.28,5.58c2.12,1,4.62,2.24,6,4.25,1.52,2.26,2.49,4.62,4.82,6.24a14.33,14.33,0,0,0,9.45,2.08,18.48,18.48,0,0,0,5-1.16c1.37-.55,2.9-1.46,4.4-1.52a3.64,3.64,0,0,0,3.52-2.91,8.45,8.45,0,0,0,3.49-5c.75-2.43.06-5.19.82-7.63s2-4.64,3-7C244.21,127.35,244.76,120.67,241.24,116.05Z"/><path class="cls-12" d="M220.08,180a1,1,0,0,1-.94-.95v-55.3a.95.95,0,1,1,1.89,0V179A1,1,0,0,1,220.08,180Z"/><path class="cls-12" d="M220.28,143.75a.9.9,0,0,1-.5-.14.94.94,0,0,1-.3-1.3l9.08-14.43a1,1,0,0,1,1.31-.29.94.94,0,0,1,.29,1.3l-9.08,14.42A.94.94,0,0,1,220.28,143.75Z"/><path class="cls-13" d="M18.65,188c.58,1.49,1.4,2.9,1.88,4.43s0,3.29.51,4.83a5.34,5.34,0,0,0,2.21,3.15,2.31,2.31,0,0,0,2.23,1.85,9.15,9.15,0,0,1,2.79,1,11.66,11.66,0,0,0,3.19.74,9.07,9.07,0,0,0,6-1.32c1.47-1,2.08-2.52,3-4a9.42,9.42,0,0,1,3.78-2.7,13.42,13.42,0,0,0,4.62-3.53A11.91,11.91,0,0,0,50.06,191c.23-.4.33-.85.55-1.25a5.31,5.31,0,0,0,1-2.62,20.83,20.83,0,0,0-3-11.58A7.8,7.8,0,0,0,44.18,172a6.44,6.44,0,0,0-2.5-.33l-.91.07c-.21-.18-.45-.32-.66-.49-.45-.35-.89-.73-1.37-1a7.41,7.41,0,0,0-1.91-.79,9.57,9.57,0,0,1-1-.19,3,3,0,0,0-1.54-.67c-1.83-.36-3.53-1-5.43-.63a9.13,9.13,0,0,0-4.3,2.33,11,11,0,0,0-2.92,4,5.73,5.73,0,0,1-.91,1.93,18.89,18.89,0,0,0-1.51,1.46C17,180.55,17.38,184.77,18.65,188Z"/><path class="cls-12" d="M32.66,218.11a.6.6,0,0,1-.6-.6v-35a.6.6,0,0,1,1.2,0v35A.6.6,0,0,1,32.66,218.11Z"/><path class="cls-12" d="M32.54,195.17a.61.61,0,0,1-.51-.28l-5.75-9.14a.6.6,0,1,1,1-.64L33,194.25a.59.59,0,0,1-.18.82A.55.55,0,0,1,32.54,195.17Z"/><path class="cls-11" d="M455.49,119.35c.56,1.42,1.34,2.77,1.79,4.22s0,3.15.49,4.62a5.12,5.12,0,0,0,2.11,3A2.2,2.2,0,0,0,462,133a8.85,8.85,0,0,1,2.66.92,10.93,10.93,0,0,0,3,.7,8.6,8.6,0,0,0,5.71-1.26c1.41-1,2-2.4,2.92-3.76A8.9,8.9,0,0,1,480,127a13,13,0,0,0,4.4-3.37,12.72,12.72,0,0,0,1.11-1.43c.21-.37.31-.81.52-1.19a5.07,5.07,0,0,0,.92-2.5,19.86,19.86,0,0,0-2.84-11,7.43,7.43,0,0,0-4.21-3.39,6.27,6.27,0,0,0-2.39-.3q-.43,0-.87.06c-.2-.17-.43-.31-.63-.47a15.89,15.89,0,0,0-1.3-1,6.73,6.73,0,0,0-1.82-.75,8.57,8.57,0,0,1-.92-.19,2.83,2.83,0,0,0-1.47-.63c-1.74-.35-3.36-.93-5.18-.6a8.73,8.73,0,0,0-4.1,2.22,10.51,10.51,0,0,0-2.79,3.81,5.38,5.38,0,0,1-.87,1.84,17.16,17.16,0,0,0-1.44,1.39C454,112.23,454.28,116.26,455.49,119.35Z"/><path class="cls-12" d="M468.86,148.06a.56.56,0,0,1-.57-.57V114.08a.56.56,0,0,1,.57-.57.57.57,0,0,1,.57.57v33.41A.57.57,0,0,1,468.86,148.06Z"/><path class="cls-12" d="M468.74,126.18a.57.57,0,0,1-.48-.27l-5.49-8.72a.56.56,0,0,1,.18-.78.57.57,0,0,1,.79.18l5.48,8.71a.57.57,0,0,1-.18.79A.55.55,0,0,1,468.74,126.18Z"/><path class="cls-13" d="M170.5,141.34a8.08,8.08,0,0,0-4.23-2.09l-.22,0c-.43-2.09-.87-5-1.41-7.46a13.57,13.57,0,0,0-4.18-7.69A10.49,10.49,0,0,0,145,126.2a22.08,22.08,0,0,0-3.51,7.85c-.72,2.71-1.84,5.28-1.8,8.13.11,7.06-.72,14.16,3,20.48,1.62,2.75,3.07,5.69,5.76,7.56,3.11,2.15,6.72,2.1,10.33,2.06a3.93,3.93,0,0,0,4-3.57,10.54,10.54,0,0,0,1.63-1.64,57,57,0,0,0,4.61-7.6,33.48,33.48,0,0,0,3.83-8.68C173.58,147.44,173.2,143.74,170.5,141.34Zm-14.45-9.5a8.45,8.45,0,0,0-1.87-1.91,1.86,1.86,0,0,1,.76.33A3.23,3.23,0,0,1,156.05,131.84Z"/><path class="cls-12" d="M155.53,190.61a1,1,0,0,1-.95-.94V145.72a.95.95,0,0,1,1.89,0v43.95A.94.94,0,0,1,155.53,190.61Z"/><path class="cls-13" d="M442,130.19a5.3,5.3,0,0,0-2.79-1.37l-.14,0c-.29-1.38-.58-3.32-.93-4.92a8.92,8.92,0,0,0-2.76-5.07,6.91,6.91,0,0,0-5.18-1.6,6.83,6.83,0,0,0-5,3,14.56,14.56,0,0,0-2.32,5.17c-.47,1.79-1.21,3.48-1.18,5.37.07,4.65-.48,9.34,2,13.5,1.08,1.82,2,3.76,3.81,5,2,1.42,4.43,1.38,6.81,1.35a2.57,2.57,0,0,0,2.61-2.35,6.49,6.49,0,0,0,1.08-1.08,36.93,36.93,0,0,0,3-5,21.69,21.69,0,0,0,2.52-5.73C444.06,134.21,443.81,131.77,442,130.19Zm-9.53-6.26a5.24,5.24,0,0,0-1.23-1.26,1.06,1.06,0,0,1,.5.22A2,2,0,0,1,432.5,123.93Z"/><path class="cls-12" d="M432.16,162.69a.63.63,0,0,1-.63-.62v-29a.63.63,0,0,1,1.25,0v29A.62.62,0,0,1,432.16,162.69Z"/><path class="cls-11" d="M699.56,175.15a7.12,7.12,0,0,0-3.71-1.83l-.19,0c-.38-1.83-.76-4.42-1.24-6.54a11.8,11.8,0,0,0-3.67-6.75,9.2,9.2,0,0,0-13.57,1.87,19.34,19.34,0,0,0-3.08,6.88c-.64,2.39-1.62,4.64-1.58,7.14.1,6.19-.64,12.43,2.63,18,1.43,2.42,2.7,5,5.06,6.63,2.72,1.89,5.9,1.85,9.06,1.81a3.44,3.44,0,0,0,3.48-3.13,9.34,9.34,0,0,0,1.44-1.44,49.52,49.52,0,0,0,4-6.67,29,29,0,0,0,3.36-7.62C702.26,180.5,701.94,177.26,699.56,175.15Zm-12.68-8.33a7.24,7.24,0,0,0-1.64-1.68,1.72,1.72,0,0,1,.67.29A2.8,2.8,0,0,1,686.88,166.82Z"/><path class="cls-12" d="M686.43,218.39a.83.83,0,0,1-.83-.83V179a.83.83,0,1,1,1.65,0v38.56A.83.83,0,0,1,686.43,218.39Z"/><g class="cls-14"><path class="cls-15" d="M208,183.7a11.41,11.41,0,0,0-1.82-3.84,12.76,12.76,0,0,1-1.64-4.54c-1.3-6.31-3.93-13.23-10.44-15.79a11.72,11.72,0,0,0-11.53,1.3,13.47,13.47,0,0,0-2.95,1.76c-2.74,2.21-3.42,5.22-3.63,8.5a.25.25,0,0,0,0,.07c-.75,1.49-1.6,3-2.27,4.49a23.75,23.75,0,0,0-1.74,4.7,27.29,27.29,0,0,0-.11,5.57c.08,3.4.54,7.11,2.46,10a12.42,12.42,0,0,0,3.4,3.3,20.65,20.65,0,0,0,4.21,2.67c3.26,1.25,7.31.59,10.73.58a3.41,3.41,0,0,0,2.46-1l.59-.1a16.2,16.2,0,0,0,4.74-1.15,13.32,13.32,0,0,0,3.76-2.31,7.19,7.19,0,0,0,1.44-2l.35-.7a7.33,7.33,0,0,0,1-1.33C208.63,191.11,208.69,186.85,208,183.7Z"/></g><path class="cls-12" d="M188.84,217.3a1,1,0,0,1-.94-1v-29.2l-7-4.82a.94.94,0,1,1,1.06-1.56l7.84,5.39v30.19A1,1,0,0,1,188.84,217.3Z"/><path class="cls-12" d="M188.84,187.6a1,1,0,0,1-.94-.94l-.15-15.56a.94.94,0,0,1,.93-.95h0a.94.94,0,0,1,.94.94l.16,15.55a1,1,0,0,1-.94,1Z"/><path class="cls-12" d="M189.48,197.58a.94.94,0,0,1-.67-1.61l6.88-6.87a.94.94,0,1,1,1.33,1.33l-6.88,6.88A.93.93,0,0,1,189.48,197.58Z"/><g class="cls-14"><circle class="cls-15" cx="733.45" cy="156.32" r="28.27"/></g><path class="cls-12" d="M731.85,216.65a1,1,0,0,1-.94-1V150a.94.94,0,0,1,1.88,0V215.7A1,1,0,0,1,731.85,216.65Z"/><path class="cls-12" d="M731.85,174.31a.94.94,0,0,1-.58-1.68l10.31-8.14a.94.94,0,0,1,1.17,1.48l-10.32,8.14A1,1,0,0,1,731.85,174.31Z"/><path class="cls-11" d="M117.75,182.94c-.2-4.7-2.7-8.48-4.54-12.66-1.93-4.42-4.14-8.72-5.9-13.21s-3.49-9-5-13.55c-.7-2.14-1.6-4.18-2.36-6.3-.68-1.9-.76-3.57-2.12-5.22-1.65-2-5.36-1.39-6.48.84-1.83,3.63-2.72,7.58-4.35,11.28a78.45,78.45,0,0,0-4.3,11.7c-1,4-2.55,7.62-3.94,11.48a39.76,39.76,0,0,1-2.16,4.8,18.29,18.29,0,0,0-1.75,5.05,20.66,20.66,0,0,0-1.6,3.09c-3.78,1.37-3.3,8,1.47,8H113a3.75,3.75,0,0,0,3.66-2.42A3.63,3.63,0,0,0,117.75,182.94Z"/><path class="cls-12" d="M93.1,211.93a1,1,0,0,1-.95-1V158A.95.95,0,0,1,94,158v53A1,1,0,0,1,93.1,211.93Z"/><path class="cls-12" d="M94.26,184.43,85.52,177a.95.95,0,0,1,1.22-1.45l5.53,4.68L92,170.55l5.66-8.21a.94.94,0,0,1,1.55,1.07l-5.31,7.7Z"/><path class="cls-11" d="M291.69,171.33c-.11-2.7-1.55-4.87-2.6-7.28s-2.39-5-3.4-7.59-2-5.17-2.86-7.8c-.4-1.23-.92-2.4-1.35-3.62a8.36,8.36,0,0,0-1.23-3,2.38,2.38,0,0,0-3.72.48c-1,2.09-1.57,4.36-2.5,6.49a44.47,44.47,0,0,0-2.48,6.73c-.59,2.29-1.46,4.38-2.26,6.6a23.51,23.51,0,0,1-1.24,2.76,10.55,10.55,0,0,0-1,2.9,11.6,11.6,0,0,0-.92,1.78c-2.17.79-1.9,4.6.85,4.6h22a2.16,2.16,0,0,0,2.11-1.39A2.07,2.07,0,0,0,291.69,171.33Z"/><path class="cls-12" d="M277.52,188a.55.55,0,0,1-.55-.54V157a.55.55,0,0,1,.55-.54.54.54,0,0,1,.54.54v30.49A.54.54,0,0,1,277.52,188Z"/><path class="cls-12" d="M278.18,172.19l-5-4.25a.54.54,0,0,1-.06-.77.55.55,0,0,1,.76-.06L277,169.8l-.13-5.59,3.25-4.72a.54.54,0,0,1,.76-.14.54.54,0,0,1,.14.75L278,164.53Z"/><path class="cls-11" d="M545.21,132.85c-.1-2.43-1.39-4.38-2.34-6.54s-2.14-4.5-3-6.82-1.8-4.64-2.57-7c-.36-1.1-.82-2.16-1.21-3.25a7.43,7.43,0,0,0-1.1-2.69,2.14,2.14,0,0,0-3.35.43c-.94,1.87-1.4,3.91-2.24,5.82a39.77,39.77,0,0,0-2.22,6c-.54,2.06-1.32,3.94-2,5.93a22.11,22.11,0,0,1-1.12,2.48,9.1,9.1,0,0,0-.9,2.61,10.51,10.51,0,0,0-.83,1.59c-2,.71-1.7,4.13.76,4.13h19.77a1.93,1.93,0,0,0,1.89-1.25A1.86,1.86,0,0,0,545.21,132.85Z"/><path class="cls-12" d="M532.48,147.82a.48.48,0,0,1-.48-.49V120a.48.48,0,0,1,.48-.49.49.49,0,0,1,.49.49v27.38A.49.49,0,0,1,532.48,147.82Z"/><path class="cls-12" d="M533.08,133.62l-4.51-3.82a.49.49,0,1,1,.63-.74l2.85,2.41-.12-5,2.93-4.24a.49.49,0,0,1,.8.55l-2.74,4Z"/><g class="cls-16"><path class="cls-10" d="M180.09,44.55H55.44c-29.62,0-29.67,46,0,46H180.09C209.72,90.59,209.77,44.55,180.09,44.55Z"/></g><g class="cls-16"><path class="cls-10" d="M765.62,24.63c-1,0-2,0-3,0l-.73,0a1.71,1.71,0,0,0-.61-.26c-2.5-.79-5.1-.64-7.63-.64-4.72,0-9.44.07-14.16.07H710.17c-10.49,0-10.51,24.36,0,24.36h29.34c4.72,0,9.44-.07,14.16-.08,1.15,0,2.3,0,3.45,0l.8,0,.28.08a35.75,35.75,0,0,0,7.42.66C776.11,48.85,776.13,24.5,765.62,24.63Z"/></g><g class="cls-16"><path class="cls-10" d="M748.36,60.41H637.56c-23.92,0-24,28.1,0,28.1h110.8C772.29,88.51,772.33,60.41,748.36,60.41Z"/></g><g class="cls-9"><path class="cls-4" d="M635,222.74l-1-.57a3.29,3.29,0,0,0-2.44-.42c-10.35-3-18.16-11.53-29.26-11.71-7.48-.12-15.67,1.05-23-.56-6-1.32-11.94-3.5-17.93-5l-1.5-.4c-5.34-3.67-12.33-5-19.39-5.41a118.44,118.44,0,0,0-15.34-3.12c-12.16-1.52-25.53-2.3-37.73-.88-6.19.73-12,3.11-18.16,3.74a94.53,94.53,0,0,1-22.3-.68c-3.16-.44-6.27-1.08-9.36-1.82-3.12-.93-6.26-1.81-9.42-2.58-6.32-1.87-12.59-3.89-19-5.4-11.16-2.62-23.23-3.81-34.62-5s-22.47-4.62-34-4.65c-4.56,0-4.56,7.07,0,7.08,12.67,0,25.45,3.92,38.05,5.44,3.86.47,7.75.88,11.65,1.35a3.41,3.41,0,0,0,2.51,1.18c9.87.45,20.1,4.09,29.87,5.84l.94.19c5.25,1.56,10.51,3.07,15.87,4.2,4.77,1.51,9.52,3.12,14.17,4.55,9.1,2.81,18,6.2,26.95,9.53s17.11,8.43,26.24,11.31a3.35,3.35,0,0,0,.93.26,3.3,3.3,0,0,0,1.24.06H631.72a4.34,4.34,0,0,0,.53-.05h.07C636.11,229.94,638.68,224.87,635,222.74Z"/></g><g class="cls-14"><circle class="cls-15" cx="501.65" cy="139.68" r="12.66"/></g><g class="cls-17"><line class="cls-18" x1="502.37" y1="147.31" x2="497.75" y2="143.67"/></g><path class="cls-12" d="M502.37,166.7a.42.42,0,0,1-.42-.43V136.86a.43.43,0,0,1,.85,0v29.41A.43.43,0,0,1,502.37,166.7Z"/><g class="cls-14"><path class="cls-15" d="M633,137.28a9.41,9.41,0,0,0-1.53-3.21,10.55,10.55,0,0,1-1.37-3.82c-1.09-5.29-3.3-11.09-8.76-13.24a9.79,9.79,0,0,0-9.68,1.09,11,11,0,0,0-2.47,1.47c-2.31,1.86-2.87,4.38-3.05,7.13,0,0,0,0,0,.07-.62,1.24-1.34,2.48-1.9,3.76a18.94,18.94,0,0,0-1.45,3.95,22.08,22.08,0,0,0-.1,4.67c.06,2.85.45,6,2.06,8.41a10.3,10.3,0,0,0,2.86,2.76,16.77,16.77,0,0,0,3.53,2.25c2.73,1.05,6.14.5,9,.48a2.87,2.87,0,0,0,2.07-.8l.49-.08a13.72,13.72,0,0,0,4-1,11.16,11.16,0,0,0,3.16-1.94A6.38,6.38,0,0,0,631,147.6l.29-.59a7,7,0,0,0,.88-1.11C633.57,143.5,633.62,139.93,633,137.28Z"/></g><path class="cls-12" d="M617,165.48a.8.8,0,0,1-.8-.79V140.18l-5.88-4.05a.8.8,0,0,1-.21-1.1.79.79,0,0,1,1.1-.2l6.58,4.52v25.34A.8.8,0,0,1,617,165.48Z"/><path class="cls-12" d="M617,140.56a.8.8,0,0,1-.8-.79L616,126.72a.79.79,0,0,1,.79-.8h0a.8.8,0,0,1,.79.78l.13,13.06a.81.81,0,0,1-.79.8Z"/><path class="cls-12" d="M617.5,148.94a.79.79,0,0,1-.56-.23.8.8,0,0,1,0-1.13l5.77-5.77a.81.81,0,0,1,1.12,0,.79.79,0,0,1,0,1.12l-5.77,5.78A.82.82,0,0,1,617.5,148.94Z"/><path class="cls-19" d="M521.42,208.67a9.12,9.12,0,0,0-2.94,1.44l-2.86-1,1,1.74-.63,1.67,2.36-1.12a8.32,8.32,0,0,0,3.09,1.6c1.85,0,4.58-.68,4.58-1.87S523.27,208.67,521.42,208.67Z"/><path class="cls-19" d="M528.91,219a5.72,5.72,0,0,0-1.64,1.13l-1.8-.35.74,1-.23,1.06,1.32-.89a4.9,4.9,0,0,0,2,.68c1.11-.16,2.69-.82,2.58-1.53S530,218.81,528.91,219Z"/><path class="cls-19" d="M556.27,215.42a5.81,5.81,0,0,0-2,.22l-1.42-1.16.2,1.19-.7.83,1.58-.16a5,5,0,0,0,1.44,1.55c1.06.38,2.75.55,3-.13S557.33,215.8,556.27,215.42Z"/><g id="hVpiUL" class="cls-20"><path d="M269.9,70.57l.13.37.07-.06.44.41a10,10,0,0,1,.7.76,4.4,4.4,0,0,1,.89,1.63c.12.45.27.88.43,1.38a5.1,5.1,0,0,0,2.07-.37c.64-.32,1.24-.7,1.93-1.09-.25,1-2,2.4-2.38,2.15l-.55.45a.93.93,0,0,1-.2.08,1.39,1.39,0,0,0,.15.19c.46.35.92.68,1.37,1a1.44,1.44,0,0,1,.22.27l-.08.08a1.51,1.51,0,0,0-.36-.22c-.59-.19-1.19-.33-1.76-.54a4,4,0,0,1-.68-.49c-.17-.11-.35-.19-.52-.29a3.94,3.94,0,0,0-1.87-.55c.75-.66.75-.66,1.39-.71a2.89,2.89,0,0,0-.26-.35c-.25-.26-.51-.5-.45-.92a.66.66,0,0,0-.2-.43,4.61,4.61,0,0,1-.59-2.76Z"/><path d="M338.46,70.85l.2.18,0-.06.4.11c.22.08.45.14.66.24a3.11,3.11,0,0,1,1.06.7c.21.23.44.44.7.7a3.73,3.73,0,0,0,1.13-.88c.28-.4.53-.81.82-1.27.15.67-.43,2.07-.76,2.05l-.19.45a.5.5,0,0,1-.1.11,1,1,0,0,0,.15.07l1.16.19a1.28,1.28,0,0,1,.22.09l0,.07a2.64,2.64,0,0,0-.29,0c-.41.08-.82.18-1.23.23a2.3,2.3,0,0,1-.57-.08c-.13,0-.27,0-.4,0a2.61,2.61,0,0,0-1.3.25c.24-.63.24-.63.61-.87-.11,0-.18-.1-.26-.13-.24-.07-.47-.13-.57-.41,0-.09-.16-.15-.25-.2a3.09,3.09,0,0,1-1.23-1.47Z"/><path d="M295.83,82.92c.13,1.07-.51,2.49-1,2.45,0,.09.05.26,0,.27-.21.11-.38.42-.67.17-.25.27-.51.24-.61-.06l-.12.24h-.09l0-.19,0,0c-.43,0-.43,0-.26-.49s.38-.94.56-1.41a12.18,12.18,0,0,1-1.6.44,7.38,7.38,0,0,1-1.69,0c.88-.78,2-1.16,2.86-2l-.73-.44c.22-.09.42-.18.62-.25a.41.41,0,0,1,.22,0l1.16.35a4.37,4.37,0,0,0,.77.2,3.7,3.7,0,0,1,1.38.6,10.49,10.49,0,0,0,1.42.56c.13,0,.26.12.41.19a.84.84,0,0,1-1.17-.25Z"/></g></g></g></svg>