<svg width="43" height="37" viewBox="0 0 43 37" fill="none" xmlns="http://www.w3.org/2000/svg">
<path d="M21.0029 37C20.6765 37 20.4588 36.8912 20.2412 36.6735L3.37353 19.8059C-1.08823 15.2353 -1.08823 7.94412 3.37353 3.37353C5.55 1.19706 8.48824 0 11.5353 0C14.5824 0 17.5206 1.19706 19.6971 3.37353L21.0029 4.67941L22.2 3.48235C26.7706 -1.08823 34.1706 -1.08824 38.7412 3.37353C40.9176 5.55 42.1147 8.48824 42.1147 11.5353C42.1147 14.5824 40.9176 17.5206 38.7412 19.6971L21.7647 36.6735C21.6559 36.8912 21.3294 37 21.0029 37ZM11.6441 2.17647C9.03235 2.17647 6.74706 3.15588 4.89706 4.89706C3.15588 6.74706 2.17647 9.03235 2.17647 11.6441C2.17647 14.1471 3.15588 16.5412 4.89706 18.2824L21.0029 34.3882L37.1088 18.2824C38.85 16.5412 39.8294 14.1471 39.8294 11.6441C39.8294 9.14118 38.85 6.74706 37.1088 5.00588C33.4088 1.30588 27.5324 1.30588 23.8324 5.00588L21.7647 6.96471C21.3294 7.4 20.6765 7.4 20.2412 6.96471L18.1735 4.89706C16.4324 3.15588 14.1471 2.17647 11.6441 2.17647Z" fill="#EC1D17"/>
</svg>
