<svg width="37" height="37" viewBox="0 0 37 37" fill="none" xmlns="http://www.w3.org/2000/svg">
<path d="M32.1283 7.10708C31.3409 6.3193 30.406 5.69437 29.377 5.268C28.348 4.84164 27.2451 4.62218 26.1312 4.62218C25.0174 4.62218 23.9145 4.84164 22.8855 5.268C21.8565 5.69437 20.9216 6.3193 20.1342 7.10708L18.5 8.74125L16.8658 7.10708C15.2753 5.51656 13.1181 4.62301 10.8687 4.62301C8.6194 4.62301 6.46219 5.51656 4.87166 7.10708C3.28114 8.69761 2.38759 10.8548 2.38759 13.1042C2.38759 15.3535 3.28114 17.5107 4.87166 19.1013L6.50583 20.7354L18.5 32.7296L30.4942 20.7354L32.1283 19.1013C32.9161 18.3138 33.541 17.3789 33.9674 16.3499C34.3938 15.3209 34.6132 14.218 34.6132 13.1042C34.6132 11.9903 34.3938 10.8874 33.9674 9.85841C33.541 8.82941 32.9161 7.8945 32.1283 7.10708V7.10708Z" stroke="#EC1D17" stroke-width="2" stroke-linecap="round" stroke-linejoin="round"/>
</svg>
