<svg xmlns="http://www.w3.org/2000/svg" viewBox="0 0 231.06 155.43"><defs><style>.cls-1{fill:#f7201b;}.cls-11,.cls-15,.cls-2,.cls-4{fill:#fff;}.cls-2,.cls-4,.cls-9{stroke:#000;}.cls-10,.cls-11,.cls-12,.cls-13,.cls-14,.cls-15,.cls-16,.cls-2,.cls-3,.cls-4,.cls-5,.cls-7,.cls-9{stroke-miterlimit:10;}.cls-2{stroke-width:0.2px;}.cls-10,.cls-12,.cls-13,.cls-14,.cls-16,.cls-3,.cls-5,.cls-7,.cls-9{fill:none;}.cls-3{stroke:#fff;}.cls-3,.cls-5{stroke-width:0.23px;}.cls-4,.cls-9{stroke-width:0.19px;}.cls-10,.cls-11,.cls-12,.cls-13,.cls-5{stroke:#010101;}.cls-6{fill:#0e0e0e;}.cls-15,.cls-7{stroke:#0e0e0e;stroke-width:0.28px;}.cls-8{fill:#010101;}.cls-10,.cls-11,.cls-14{stroke-width:0.25px;}.cls-12{stroke-width:0.14px;}.cls-13{stroke-width:0.18px;}.cls-14{stroke:#fcfcfc;}.cls-16{stroke:#606060;stroke-width:0.15px;}.cls-17{fill:#606060;}.cls-18{fill:#fcfcfc;}</style></defs><title>hero_img_1</title><g id="Layer_2" data-name="Layer 2"><g id="Layer_1-2" data-name="Layer 1"><circle class="cls-1" cx="115.9" cy="67.08" r="16.98"/><path class="cls-2" d="M2.67,155.43a97.8,97.8,0,1,1,195.6-.56"/><line class="cls-3" x1="209.76" y1="56.65" x2="207.4" y2="79.16"/><circle class="cls-4" cx="50.84" cy="74.2" r="10.61"/><polygon class="cls-1" points="55.49 90.54 50.84 74.2 67.71 79.53 55.49 90.54"/><path class="cls-5" d="M71,18.75A4.28,4.28,0,0,1,72.52,21a.63.63,0,0,1,0,.57c-.16.22-.53.18-.7.39.21.17.18.49.13.76a3.2,3.2,0,0,1-1.06,2.23,2.54,2.54,0,0,1-1.41.33c-1.55,0-2.57-.77-2.9,1.29"/><path class="cls-6" d="M87.77,83.67c.72-4.35,5-30.42,4.71-32.07-.3-1.81-9-1.91-12.43.2S63.2,53.71,63.2,53.71c-.3,7.12,2.3,11.83,10.53,8.92s11.33-5.31,11.33-5.31l-.6,25.57-.26,2.75h7.26C91.08,84.63,89.2,84,87.77,83.67Z"/><line class="cls-7" x1="127.1" y1="117.07" x2="175.58" y2="117.07"/><circle class="cls-4" cx="191.4" cy="74.39" r="2.77"/><circle class="cls-4" cx="34.17" cy="92.06" r="2.77"/><path class="cls-5" d="M65.87,26.5a5.22,5.22,0,0,1,4,.3c2.57,1.31,3.57,4.4,4.24,7.2s1.45,5.89,3.84,7.49a9,9,0,0,0,5.43,1.18,4.46,4.46,0,0,1,3.07.56"/><path class="cls-5" d="M62.26,40.32a74.84,74.84,0,0,0-1.6,13.51,4.48,4.48,0,0,1,3.41.13"/><path class="cls-8" d="M71.63,16.74C68,13,62.64,14.82,62.14,19s-4.83,2.71-6.85,8.28S51,31.66,49.65,34.55c-1.9,4.16,1.23,11.46,7.86,10.24,6.29-1.16,10.83-9.59,10.2-18.95-.14-2.27.91-4.16,2.24-4.65S72.68,17.82,71.63,16.74Z"/><path class="cls-5" d="M70.22,35.61a6.6,6.6,0,0,0,.55,1.48l1.76,3.82a5,5,0,0,0,.54,1A4.72,4.72,0,0,0,74.48,43l1.18.71"/><polygon class="cls-6" points="98.97 33.33 87.87 33.33 83.79 44.48 72.78 44.48 72.23 45.4 85.25 45.51 93.98 45.61 98.97 33.33"/><circle class="cls-1" cx="216.27" cy="25.2" r="14.79"/><circle class="cls-9" cx="204.97" cy="12.73" r="12.63"/><path d="M151.37,65.14l2.95,47.18c-3.18.1-3.39,1.67-3.39,1.67l7.2-.67L160,82.55l21.15,16.08c-2.14,1.22-1.36,2.92-1.36,2.92l5.11-4.34L167.45,79.9l-1.87-14.18Z"/><path class="cls-8" d="M159.2,34.07a4.72,4.72,0,0,1,.47,2.7,8.78,8.78,0,0,1-.1,1.16.41.41,0,0,0,0,.09c-.81,2-3.61,2-5.41,1.74a.4.4,0,0,0-.19,0,.29.29,0,0,0-.23.36.09.09,0,0,1,0,0s0,.05,0,.07c.6,2.49,4,2.13,5.48.61,1.1-1.11,1.24-2.51,1.43-4a4.56,4.56,0,0,1,.15-1.23c.7-1.6,1.92-.5,1.78.65-.08.66-.59,1.1-.69,1.75a.35.35,0,0,0,.67.21,10.17,10.17,0,0,0,1.29-4.8,1.33,1.33,0,0,0,.62-1.61,1.17,1.17,0,0,0-1-.88,2.14,2.14,0,0,0-.26-.46,3.78,3.78,0,0,0-1-.9,3.46,3.46,0,0,0-2.94-.34l-.18.08a3.78,3.78,0,0,0-2.48-.35,2.38,2.38,0,0,0-1.31.66,4,4,0,0,0-.45.55c-1.33-.19-2.86.74-2.44,2.27.52,1.92,3,1.74,4.57,1.7C157.71,34.15,158.46,34.12,159.2,34.07Z"/><path class="cls-10" d="M154.18,43.06c-2.77-1.51-5.7-3-8.47-4.45a7.65,7.65,0,0,1-1.63-1.07,7.62,7.62,0,0,1-1.44-2.13c-1.19-2.29-2.34-4.59-3.46-6.92a4.71,4.71,0,0,0-2.92,1.33,10.35,10.35,0,0,0,.49,1.52l4.1,11.36a5,5,0,0,1,1,.48l8.38,4.71"/><path class="cls-11" d="M150.78,46.28c-.79,5.93-.1,14.9,0,21.22,4.6.28,10.8.4,15.34,1.19a102.47,102.47,0,0,1-1.3-16.82"/><path class="cls-10" d="M168.92,58.71c.62-.63,1.78-1.27,2.24-2s-.07-1.88-.29-2.77c-.56-2.25-1.22-4.47-2-6.67a3.87,3.87,0,0,0-.68-1.38,3.82,3.82,0,0,0-1.56-1,19.6,19.6,0,0,0-4.2-1.13,11.74,11.74,0,0,1-3.31,1,4.79,4.79,0,0,1-3.35-.72,4.5,4.5,0,0,0-1.63-1"/><path class="cls-10" d="M171.16,56.72A41.66,41.66,0,0,0,176,53.27a29.26,29.26,0,0,1,2.14,3.35A75.31,75.31,0,0,1,171,62.45a6.26,6.26,0,0,1-1.84,1,2.18,2.18,0,0,1-2-.32c-.51-.43-2.28-6.26-2.27-8.56"/><path class="cls-10" d="M136.23,29.67a2.8,2.8,0,0,0-.68-.43,3.69,3.69,0,0,1-1.69-1.9"/><path class="cls-10" d="M138.73,28.46a6.7,6.7,0,0,1-.36-2.77,6.81,6.81,0,0,0-.45-1.87c-.16-.44-.36-.88-.55-1.31,0-.09-.09-.18-.18-.18a.24.24,0,0,0-.13.08,3.5,3.5,0,0,0-.65,2.05l-.06.71-4.21,3.08-5.42-6.47,9.63-7.21,4.79,6.68-3,2.41"/><line class="cls-12" x1="138.35" y1="20.8" x2="135.82" y2="17.47"/><line class="cls-12" x1="135.86" y1="19.71" x2="134.94" y2="18.47"/><line class="cls-13" x1="135.42" y1="24.18" x2="132.34" y2="19.71"/><path class="cls-10" d="M177.82,55.82a3.77,3.77,0,0,1,1.21-.88c.39-.19.82-.3,1.2-.51a1.85,1.85,0,0,0,.68-.56c.23-.32.17-.46,0-.81-.29-.67-.58-1.35-.88-2a1,1,0,0,1-.09-.33,1,1,0,0,1,.22-.45,2.55,2.55,0,0,0,.46-1.56l-2,.86-1.16.55c-.24.09.23,2.75.23,2.75L176.5,54"/><polyline class="cls-10" points="180.91 53.87 181.36 54.65 190.6 48.28 187.25 40.37 178.52 45.49 179.58 49.11"/><line class="cls-12" x1="188.03" y1="47.92" x2="186.56" y2="44.18"/><line class="cls-12" x1="186.91" y1="48.57" x2="185.73" y2="45.77"/><line class="cls-12" x1="185.85" y1="49.21" x2="185.14" y2="47.54"/><circle class="cls-12" cx="182.64" cy="50.62" r="1.22"/><line class="cls-14" x1="159.97" y1="82.55" x2="158.88" y2="72.64"/><circle class="cls-15" cx="67.37" cy="117.23" r="10.04"/><circle class="cls-15" cx="120.67" cy="113.64" r="9.64"/><polygon class="cls-15" points="80.63 129.78 95.39 112.64 110.47 129.44 80.63 129.78"/><rect class="cls-1" x="76.41" y="93.32" width="20.31" height="20.31" transform="translate(95.71 -31.12) rotate(43.8)"/><path class="cls-5" d="M77,45.34a60.35,60.35,0,0,0,.69,7.7"/><polygon class="cls-9" points="90.58 25.68 86.77 25.68 86.3 18.74 94.44 19.25 94.52 25.55 91.69 25.63 90.37 27.56 90.58 25.68"/><circle class="cls-6" cx="88.69" cy="22.11" r="0.32"/><circle class="cls-6" cx="90.4" cy="22.11" r="0.32"/><circle class="cls-6" cx="92.11" cy="22.11" r="0.32"/><polygon class="cls-9" points="86.26 6.4 86.37 15.62 97.27 15.71 99.19 17.74 99.42 15.54 104.89 15.42 105.12 6.33 86.26 6.4"/><path class="cls-16" d="M85.65,34.71c-.47-2.43,2-4.52,4.51-4.82s4.88.53,7.34.74a14.84,14.84,0,0,0,10.24-3c2.37-1.84,4.11-4.35,6-6.68s4.09-4.59,6.93-5.59a7.34,7.34,0,0,1,7.41,1.3"/><polygon class="cls-17" points="128.76 17.46 127.32 16.72 128.02 16.59 128.25 15.93 128.76 17.46"/><path class="cls-16" d="M16,90.33C7.75,90.47.89,98.23.15,106.46s3.69,16.31,10,21.67,14.24,8.37,22.21,10.55A134.82,134.82,0,0,0,56.68,143"/><polygon class="cls-17" points="58.13 143.06 56.01 143.7 56.57 142.91 56.16 142.03 58.13 143.06"/><polygon class="cls-18" points="185.02 114.82 187.31 110.15 191.27 109.99 191.11 115.92 185.73 116.08 185.02 114.82"/><polygon class="cls-1" points="209.25 90.26 203.64 139.88 172.32 136.33 209.25 90.26"/><polygon class="cls-7" points="205.83 86.95 200.22 136.57 168.9 133.03 205.83 86.95"/></g></g></svg>