<svg width="50" height="50" viewBox="0 0 50 50" fill="none" xmlns="http://www.w3.org/2000/svg">
<rect width="50" height="50" fill="white"/>
<path d="M30.5191 17.2405C30.2343 11.2595 19.6962 11.2595 19.6963 17.2405V29.2025C19.6963 34.6139 30.5191 35.4684 30.5191 29.2025C30.5191 26.3544 30.8039 23.2215 30.5191 17.2405Z" stroke="#FF2A22" stroke-width="2"/>
<path d="M30.8038 9.83544L33.6519 5.56329M25.1076 8.41139V3M19.6962 9.83544L16.8481 5.56329" stroke="#FF2A22" stroke-width="2" stroke-linecap="round" stroke-linejoin="round"/>
<path d="M14 27.7785C14.2848 35.4683 21.4051 39.1709 25.1076 39.1709M25.1076 39.1709C28.8101 39.1709 35.3608 37.1772 36.5 27.7785M25.1076 39.1709V48M15.7089 48H25.1076M33.9367 48H25.1076" stroke="#FF2A22" stroke-width="2" stroke-linecap="round" stroke-linejoin="round"/>
</svg>
