<svg width="50" height="50" viewBox="0 0 50 50" fill="none" xmlns="http://www.w3.org/2000/svg">
<rect width="50" height="50" fill="white"/>
<path fill-rule="evenodd" clip-rule="evenodd" d="M25 31C27.2091 31 29 29.2091 29 27C29 24.7909 27.2091 23 25 23C22.7909 23 21 24.7909 21 27C21 29.2091 22.7909 31 25 31ZM25 33C28.3137 33 31 30.3137 31 27C31 23.6863 28.3137 21 25 21C21.6863 21 19 23.6863 19 27C19 30.3137 21.6863 33 25 33Z" fill="#FF2A22"/>
<path fill-rule="evenodd" clip-rule="evenodd" d="M25 12C27.2091 12 29 10.2091 29 8C29 5.79086 27.2091 4 25 4C22.7909 4 21 5.79086 21 8C21 10.2091 22.7909 12 25 12ZM25 14C28.3137 14 31 11.3137 31 8C31 4.68629 28.3137 2 25 2C21.6863 2 19 4.68629 19 8C19 11.3137 21.6863 14 25 14Z" fill="#FF2A22"/>
<path fill-rule="evenodd" clip-rule="evenodd" d="M24.2499 22V13H25.7499V22H24.2499ZM29.2762 24.7841L37.2762 22.2841L37.7236 23.7159L29.7236 26.2159L29.2762 24.7841ZM19.7627 26.2115L12.2627 23.7115L12.737 22.2885L20.237 24.7885L19.7627 26.2115ZM22.576 31.4801L17.576 37.4801L16.4237 36.5199L21.4237 30.5199L22.576 31.4801ZM28.6102 30.5641L33.6102 37.5641L32.3896 38.4359L27.3896 31.4359L28.6102 30.5641Z" fill="#FF2A22"/>
<path fill-rule="evenodd" clip-rule="evenodd" d="M36 46C38.2091 46 40 44.2091 40 42C40 39.7909 38.2091 38 36 38C33.7909 38 32 39.7909 32 42C32 44.2091 33.7909 46 36 46ZM36 48C39.3137 48 42 45.3137 42 42C42 38.6863 39.3137 36 36 36C32.6863 36 30 38.6863 30 42C30 45.3137 32.6863 48 36 48Z" fill="#FF2A22"/>
<path fill-rule="evenodd" clip-rule="evenodd" d="M42 25C44.2091 25 46 23.2091 46 21C46 18.7909 44.2091 17 42 17C39.7909 17 38 18.7909 38 21C38 23.2091 39.7909 25 42 25ZM42 27C45.3137 27 48 24.3137 48 21C48 17.6863 45.3137 15 42 15C38.6863 15 36 17.6863 36 21C36 24.3137 38.6863 27 42 27Z" fill="#FF2A22"/>
<path fill-rule="evenodd" clip-rule="evenodd" d="M8 25C10.2091 25 12 23.2091 12 21C12 18.7909 10.2091 17 8 17C5.79086 17 4 18.7909 4 21C4 23.2091 5.79086 25 8 25ZM8 27C11.3137 27 14 24.3137 14 21C14 17.6863 11.3137 15 8 15C4.68629 15 2 17.6863 2 21C2 24.3137 4.68629 27 8 27Z" fill="#FF2A22"/>
<path fill-rule="evenodd" clip-rule="evenodd" d="M14 45C16.2091 45 18 43.2091 18 41C18 38.7909 16.2091 37 14 37C11.7909 37 10 38.7909 10 41C10 43.2091 11.7909 45 14 45ZM14 47C17.3137 47 20 44.3137 20 41C20 37.6863 17.3137 35 14 35C10.6863 35 8 37.6863 8 41C8 44.3137 10.6863 47 14 47Z" fill="#FF2A22"/>
</svg>
