<svg width="37" height="37" viewBox="0 0 37 37" fill="none" xmlns="http://www.w3.org/2000/svg">
<path d="M18.5 33.9167C27.0144 33.9167 33.9166 27.0144 33.9166 18.5C33.9166 9.98561 27.0144 3.08334 18.5 3.08334C9.98559 3.08334 3.08331 9.98561 3.08331 18.5C3.08331 27.0144 9.98559 33.9167 18.5 33.9167Z" stroke="#EC1D17" stroke-width="2" stroke-linecap="round" stroke-linejoin="round"/>
<path d="M14.0138 13.875C14.3762 12.8447 15.0917 11.9758 16.0333 11.4224C16.975 10.869 18.0821 10.6667 19.1586 10.8513C20.2351 11.036 21.2116 11.5957 21.915 12.4313C22.6184 13.2669 23.0033 14.3244 23.0017 15.4167C23.0017 18.5 18.3767 20.0417 18.3767 20.0417" stroke="#EC1D17" stroke-width="2.5" stroke-linecap="round" stroke-linejoin="round"/>
<path d="M18.5 26.2083H18.5154" stroke="#EC1D17" stroke-width="3" stroke-linecap="round" stroke-linejoin="round"/>
</svg>
