<svg width="33" height="33" viewBox="0 0 33 33" fill="none" xmlns="http://www.w3.org/2000/svg">
<path fill-rule="evenodd" clip-rule="evenodd" d="M16.5 2.08334C8.53787 2.08334 2.08331 8.5379 2.08331 16.5C2.08331 24.4621 8.53787 30.9167 16.5 30.9167C24.4621 30.9167 30.9166 24.4621 30.9166 16.5C30.9166 8.5379 24.4621 2.08334 16.5 2.08334ZM0.083313 16.5C0.083313 7.43333 7.43331 0.0833359 16.5 0.0833359C25.5667 0.0833359 32.9166 7.43333 32.9166 16.5C32.9166 25.5667 25.5667 32.9167 16.5 32.9167C7.43331 32.9167 0.083313 25.5667 0.083313 16.5Z" fill="#EC1D17"/>
<path fill-rule="evenodd" clip-rule="evenodd" d="M16.9473 10.0834C16.1617 9.94861 15.3538 10.0962 14.6666 10.5001C13.9795 10.9039 13.4574 11.5379 13.1929 12.2898C12.9638 12.941 12.2502 13.2833 11.599 13.0542C10.9477 12.8251 10.6055 12.1114 10.8346 11.4602C11.295 10.1514 12.2038 9.04773 13.3999 8.34474C14.5961 7.64175 16.0024 7.38478 17.3699 7.61934C18.7374 7.85389 19.9777 8.56484 20.8712 9.62627C21.7645 10.6875 22.2535 12.0305 22.2517 13.4176C22.2512 15.6223 20.6141 17.1044 19.3826 17.9255C18.7286 18.3614 18.0836 18.683 17.607 18.8949C17.3669 19.0016 17.1651 19.0824 17.0204 19.1375C16.9479 19.1651 16.8895 19.1864 16.8474 19.2014C16.8263 19.2089 16.8093 19.2148 16.7967 19.2191L16.781 19.2245L16.7756 19.2263L16.7736 19.227L16.7727 19.2273C16.7723 19.2274 16.772 19.2275 16.3767 18.0417L16.772 19.2275C16.117 19.4458 15.4091 19.0919 15.1908 18.4369C14.9728 17.7828 15.3257 17.0757 15.9791 16.8566C15.9795 16.8565 15.9798 16.8563 15.9801 16.8562C15.9803 16.8562 15.9804 16.8561 15.9806 16.8561L15.9808 16.856L15.9832 16.8552L16.0099 16.8458C16.0355 16.8367 16.0764 16.8219 16.1304 16.8013C16.2386 16.7601 16.3982 16.6963 16.5917 16.6103C16.9822 16.4367 17.4935 16.1802 17.9958 15.8453C19.0766 15.1248 19.7517 14.2947 19.7517 13.4167L19.7517 13.4148C19.7529 12.6178 19.4719 11.846 18.9586 11.2363C18.4454 10.6265 17.7328 10.2181 16.9473 10.0834ZM22.2517 13.4176C22.2517 13.4179 22.2517 13.4182 22.2517 13.4185L21.0017 13.4167H22.2517C22.2517 13.417 22.2517 13.4173 22.2517 13.4176Z" fill="#EC1D17"/>
<path fill-rule="evenodd" clip-rule="evenodd" d="M15 24.2083C15 23.3799 15.6716 22.7083 16.5 22.7083H16.5154C17.3438 22.7083 18.0154 23.3799 18.0154 24.2083C18.0154 25.0368 17.3438 25.7083 16.5154 25.7083H16.5C15.6716 25.7083 15 25.0368 15 24.2083Z" fill="#EC1D17"/>
</svg>
