<svg width="50" height="50" viewBox="0 0 50 50" fill="none" xmlns="http://www.w3.org/2000/svg">
<path d="M25.8373 30.8076C24.3802 29.3917 22.6459 28.3435 20.7537 27.709C22.7804 26.3526 24.1118 24.0825 24.1118 21.5156C24.1118 17.3715 20.6423 14 16.3778 14C12.1132 14 8.64375 17.3715 8.64375 21.5156C8.64375 24.0825 9.9752 26.3526 12.0019 27.709C10.1097 28.3435 8.37536 29.3917 6.91828 30.8076C4.39155 33.263 3 36.5276 3 40H5.09028C5.09028 33.9518 10.1538 29.0312 16.3778 29.0312C22.6017 29.0312 27.6653 33.9518 27.6653 40H29.7556C29.7556 36.5276 28.364 33.263 25.8373 30.8076ZM16.3778 27C13.2658 27 10.734 24.5397 10.734 21.5156C10.734 18.4915 13.2658 16.0312 16.3778 16.0312C19.4897 16.0312 22.0215 18.4915 22.0215 21.5156C22.0215 24.5397 19.4897 27 16.3778 27Z" fill="#EC1D17"/>
<path d="M42.247 26.8076C40.8514 25.3917 39.1904 24.3435 37.378 23.709C39.3191 22.3526 40.5943 20.0825 40.5943 17.5156C40.5943 13.3715 37.2713 10 33.1869 10C29.1024 10 25.7795 13.3715 25.7795 17.5156C25.7795 20.0825 27.0547 22.3526 28.9958 23.709C27.1835 24.3435 25.5224 25.3917 24.1268 26.8076C21.7068 29.263 22.1413 29.2759 22.1411 30.6207L24.1268 29.7241C25.2341 27.931 27.2258 25.0313 33.1869 25.0313C39.148 25.0313 43.9977 29.9518 43.9977 36H45.9997C45.9997 32.5276 44.6669 29.263 42.247 26.8076ZM33.1869 23C30.2063 23 27.7815 20.5397 27.7815 17.5156C27.7815 14.4915 30.2063 12.0313 33.1869 12.0313C36.1674 12.0313 38.5923 14.4915 38.5923 17.5156C38.5923 20.5397 36.1674 23 33.1869 23Z" fill="#EC1D17"/>
</svg>
