<svg width="50" height="50" viewBox="0 0 50 50" fill="none" xmlns="http://www.w3.org/2000/svg">
<rect width="50" height="50" fill="white"/>
<path d="M26.0935 31.823C24.5563 30.3773 22.7266 29.3071 20.7303 28.6592C22.8684 27.2742 24.2731 24.9564 24.2731 22.3355C24.2731 18.1042 20.6127 14.6617 16.1136 14.6617C11.6145 14.6617 7.95419 18.1042 7.95419 22.3355C7.95419 24.9564 9.35888 27.2742 11.497 28.6592C9.50074 29.3071 7.67104 30.3773 6.13381 31.823C3.46809 34.3301 2 37.6634 2 41.2089H4.20526C4.20526 35.0334 9.54732 30.0093 16.1136 30.0093C22.6799 30.0093 28.022 35.0334 28.022 41.2089H30.2273C30.2273 37.6634 28.7592 34.3301 26.0935 31.823ZM16.1136 27.9353C12.8305 27.9353 10.1594 25.4232 10.1594 22.3355C10.1594 19.2477 12.8305 16.7357 16.1136 16.7357C19.3968 16.7357 22.0678 19.2477 22.0678 22.3355C22.0678 25.4232 19.3968 27.9353 16.1136 27.9353Z" fill="#EC1D17"/>
<path d="M44.0585 27.5695C42.5927 26.1737 40.8481 25.1404 38.9446 24.5149C40.9833 23.1776 42.3227 20.9397 42.3227 18.4092C42.3227 14.3238 38.8325 11 34.5425 11C30.2526 11 26.7624 14.3238 26.7624 18.4092C26.7624 20.9397 28.1018 23.1776 30.1405 24.5149C28.237 25.1404 26.4924 26.1737 25.0266 27.5695C22.4848 29.9902 22.9411 30.0029 22.941 31.3286L25.0266 30.4448C26.1896 28.6771 28.2815 25.8184 34.5425 25.8184C40.8036 25.8184 45.8973 30.6692 45.8973 36.6318H48.0001C48.0001 33.2085 46.6002 29.9902 44.0585 27.5695ZM34.5425 23.8159C31.412 23.8159 28.8651 21.3905 28.8651 18.4092C28.8651 15.4279 31.412 13.0025 34.5425 13.0025C37.673 13.0025 40.2199 15.4279 40.2199 18.4092C40.2199 21.3905 37.673 23.8159 34.5425 23.8159Z" fill="#EC1D17"/>
</svg>
