<svg width="37" height="37" viewBox="0 0 37 37" fill="none" xmlns="http://www.w3.org/2000/svg">
<g clip-path="url(#clip0)">
<path d="M29.2917 27.75C31.8416 27.75 33.9167 25.6749 33.9167 23.125C33.9167 20.5751 31.8416 18.5 29.2917 18.5C26.7417 18.5 24.6667 20.5751 24.6667 23.125C24.6667 25.6749 26.7417 27.75 29.2917 27.75ZM29.2917 20.8125C30.5666 20.8125 31.6042 21.85 31.6042 23.125C31.6042 24.4 30.5666 25.4375 29.2917 25.4375C28.0167 25.4375 26.9792 24.4 26.9792 23.125C26.9792 21.85 28.0167 20.8125 29.2917 20.8125Z" fill="#EC1D17"/>
<path d="M12.3333 0C5.53304 0 0 4.86396 0 10.8425C0 16.8211 5.53304 21.6851 12.3333 21.6851C12.9454 21.6851 13.5651 21.645 14.1772 21.5618L20.0031 24.5403C20.1696 24.625 20.35 24.6667 20.5288 24.6667C20.7894 24.6667 21.0484 24.5788 21.2596 24.4077C21.6142 24.1178 21.7653 23.6476 21.645 23.2052L20.4872 18.9733C23.1543 16.9167 24.6667 13.9937 24.6667 10.8425C24.6667 4.86396 19.1336 0 12.3333 0V0ZM18.517 17.5426C18.1023 17.8186 17.9126 18.3289 18.0437 18.8083L18.722 21.2873L14.9002 19.334C14.7383 19.2523 14.5564 19.2092 14.3745 19.2092C14.3128 19.2092 14.2527 19.2138 14.191 19.2246C13.5759 19.3233 12.95 19.3726 12.3333 19.3726C6.808 19.3726 2.3125 15.5462 2.3125 10.8425C2.3125 6.13892 6.808 2.3125 12.3333 2.3125C17.8587 2.3125 22.3542 6.13892 22.3542 10.8425C22.3542 13.4695 20.9559 15.9115 18.517 17.5426V17.5426Z" fill="#EC1D17"/>
<path d="M32.7604 29.2917H25.8229C23.4842 29.2917 21.5833 31.1926 21.5833 33.5313V35.8438C21.5833 36.482 22.1013 37 22.7396 37C23.3778 37 23.8958 36.482 23.8958 35.8438V33.5313C23.8958 32.4691 24.7607 31.6042 25.8229 31.6042H32.7604C33.8226 31.6042 34.6875 32.4691 34.6875 33.5313V35.8438C34.6875 36.482 35.2055 37 35.8438 37C36.482 37 37 36.482 37 35.8438V33.5313C37 31.1926 35.0991 29.2917 32.7604 29.2917Z" fill="#EC1D17"/>
</g>
<defs>
<clipPath id="clip0">
<rect width="37" height="37" fill="white"/>
</clipPath>
</defs>
</svg>
